<svg xmlns="http://www.w3.org/2000/svg" viewBox="0 0 392.17 493.81"><defs><style>.cls-1{fill:#e6007a;}</style></defs><title>riot</title><g id="Layer_2" data-name="Layer 2"><g id="Capa_1" data-name="Capa 1"><g id="JPkHYU.tif"><path class="cls-1" d="M79.91,493.81H71.33c-3.47-.53-7-.91-10.39-1.62C25.26,484.86.71,454.8.67,418.3q-.08-63.51,0-127c0-2.5-.41-5-.63-7.5v-5.28c.22-2.39.62-4.77.63-7.16q0-97.56.1-195.13a81.2,81.2,0,0,1,1.7-17.34C10.22,23.71,40.06.1,76.59,0q68.52-.11,137,0a180.17,180.17,0,0,1,39.6,4.41c89,20.12,149,104.84,137.56,195-5.67,44.94-26.11,82.32-60,112.37-.88.79-1.76,1.56-2.69,2.37,1,1.43,1.81,2.61,2.63,3.77,14.73,21,29.93,41.64,44.07,63,15.39,23.23,16.21,47.87,2.56,72.1-24.78,44-86.82,46.2-116.31,4.44q-34.94-49.47-69.63-99.1A5.65,5.65,0,0,0,186,355.7c-10.79.14-21.58.07-32.36.08h-3.54V360c0,20.58.28,41.17-.17,61.74a73.54,73.54,0,0,1-51.45,68.09C92.49,491.73,86.12,492.52,79.91,493.81Zm1.37-206.47V415.82c0,1.1,0,2.2,0,3.3a6,6,0,0,1-5.5,5.94,6.18,6.18,0,0,1-6.23-5.26,18.2,18.2,0,0,1-.1-3q0-69.82,0-139.66V142.71C43.59,139.32,25,126.27,12.58,103.76v3.45q0,29.72,0,59.44,0,60.25-.06,120.51,0,65.05.09,130.1a70,70,0,0,0,.77,11.5C19.55,465.11,53.7,488,89.69,480c27.67-6.15,48.12-31.16,48.36-59.56.2-24.11.06-48.21.07-72.32v-4.26H181.2c-4.07-5.8-7.57-11.08-11.37-16.14-9-12-16.15-24.84-17.34-40.37Zm239.52,17a7.13,7.13,0,0,0,1.24-.6c2.3-2.05,4.67-4,6.85-6.2,42.45-42.46,59.06-93.37,48-152.38-7.74-41.23-29.6-74.4-63-99.73-27.29-20.7-58.23-32.32-92.51-33.07-38.06-.84-76.15-.35-114.23-.42a16.77,16.77,0,0,0-2.72.52c23.43,12.06,36.45,30.68,39.78,56.24h4.08c21.14,0,42.27-.27,63.4.13a134.1,134.1,0,0,1,26.47,2.81c79.6,17.72,112,114.41,59.19,176.55-2.83,3.34-5.91,6.46-9.07,9.9ZM138.41,218.67V137.29c.91,0,1.57-.12,2.22-.12q35.67,0,71.32,0a56.58,56.58,0,0,1,8.53.65c27.52,4.26,42.58,35.45,28.92,59.75-3.74,6.67-9.05,11.79-16,16.11a74.37,74.37,0,0,1,27.8,12c8.32,5.94,14.5,13.84,20.08,22.29a14.8,14.8,0,0,0,1.27-1c24.24-24.89,33.72-54.65,26.85-88.58-9.4-46.39-49.09-77.94-96.38-78q-32.52,0-65,0h-3.62a8.05,8.05,0,0,0-.38,1.17c-3.6,31.62-27.09,55.95-58.76,60.52-3.3.47-4,1.45-4,4.58q.15,62.24.07,124.47v3.86h71.05c3.15-25.47,16.1-43.85,38.16-56.38Zm11.88-12.3a8.06,8.06,0,0,0,1.32.28c21.45,0,42.9,0,64.34-.16,5.88-.05,11.13-2.42,15.71-6.1A28.74,28.74,0,0,0,214,149.12c-20.46-.1-40.91,0-61.37,0-.73,0-1.46.13-2.3.21Z"/></g></g></g></svg>