<svg xmlns="http://www.w3.org/2000/svg" viewBox="0 0 83.28 83.22"><defs><style>.cls-1{fill:none;stroke:#e6007a;stroke-miterlimit:10;stroke-width:0.1px;}</style></defs><title>Asset 1</title><g id="Layer_2" data-name="Layer 2"><g id="Layer_1-2" data-name="Layer 1"><path class="cls-1" d="M1.69,30.39c1.25-3.67,2-2.38,5.12-7.55,2.68-4.44,2.65-5.26,6.11-8.57a49,49,0,0,1,5.3-4.42C24.38,5.08,26.85,1.33,30,.64A19,19,0,0,1,33.46.36c6.1-.17,11.89-1.27,23,2.06,3.94,1.19,7.54,2.9,14.24,9.44,1.27,1.25,1.53,1.62,2.64,2.76,2.46,2.53,4.91,4.74,7.16,11.6C85.68,42.1,83.4,54,74.7,66.58a29.57,29.57,0,0,1-7.91,7.9,83.12,83.12,0,0,1-12.12,6.36,31,31,0,0,1-10.44,2.25c-11.58.64-12.45-3.08-16.92-2a8.52,8.52,0,0,1-3.51.26c-4.32-.69-7.14-6.08-9.82-8.69a31.24,31.24,0,0,1-3.73-3.91c-2.11-3.3-4-10-6.88-13.54-.3-.36-.91-1-.91-1C.13,50.45-1.18,38.77,1.69,30.39Z"/><path class="cls-1" d="M6.15,32.64c1-.95,1.67.25,4.74-6.54,5-11.11,2.86-6.3,9.15-12.89a56.93,56.93,0,0,0,7.28-9.89,5.42,5.42,0,0,1,1.82-2.07c2.21-1.29,5,.81,8.18,2.24s3.29.91,10.9,1.07c6.07.13,10.36-.14,17.91,8a22.15,22.15,0,0,0,3.77,3.5,13.18,13.18,0,0,1,5.62,6.33c3,6.75,5.26,22.12,2.44,29-.31.78-.67,1.36-1,2.13s-1.35,3.06-3.43,6.82c-5.55,10-6.46,8.9-17.31,14.54-2.75,1.43-5.53,3.82-8.33,5.08a19.26,19.26,0,0,1-4.32,1.38c-.74.27-1.46-.68-2.23-1a12.52,12.52,0,0,0-1.8-.15c-4.67-.61-7.43-4.45-9.86-3.9-1.14.25-1.72,1.28-2.38,2-3.61,3.64-6.75-.76-9.46-5.22-6.43-10.6-5.41-14.29-8.88-22.25a8.35,8.35,0,0,0-1.3-2.22.89.89,0,0,0-1-.34C3.31,48.7,3.2,35.48,6.15,32.64Z"/><path class="cls-1" d="M11,36.17c1.32.3,3.32-5.81,3.82-7.1,3.28-8.32,6.29-10,8.6-14.64C27.1,6.9,27.28,3,29,1.34,32.39-2,37.28,9.48,41.62,9.57S52.15,7,55.54,8.29c.29.11.58.23.87.37,5,2.39,6.21,6.58,11.77,9.46.91.47,2.71,1.12,4.21,5.28,1.56,4.32,4.19,19.88,2.35,26.18-.84,2.9-1.25,1.17-2.56,3.84-7.37,15-7.54,11.76-16.18,16.17-2.42,1.24-5.4,5.61-9.23,8.94-2.17,1.88-4.32,3.1-4.73,3-.61-.1-1.22-1.22-1.84-2.11-1.06-1.5-1.09-.88-2.6-1.27-5.24-1.34-6.45-9.55-8.9-5.59C27.9,73.87,26.36,79,23.33,77a3.85,3.85,0,0,1-1.21-1.32c-5.68-8.23-8.35-33.4-11-33.71-.29,0-1.54,1.27-2.4.61C7.42,41.51,7.83,35.48,11,36.17Z"/><path class="cls-1" d="M12.24,38.6a2.8,2.8,0,0,1,1-.67,4.19,4.19,0,0,1,1.56-.42c.51,0,1,.16,3-3.66a103.47,103.47,0,0,0,8.6-20.93c1.12-4.11,1.83-9,3.54-10.63,2.77-2.58,7.48,10.48,11.13,12,2.55,1.06,8.74-3,12.12-2.66,4.46.53,5.74,5.58,12,8.87,2.19,1.16,2.79,1.7,3.7,4.41C70.17,29,71,36.06,71.28,40.39s.38,7.71-.45,9.66c-.5,1.19-.7,1.21-1.22,1.27s-.86.22-1.39,1.14c-1.06,1.87-3.06,8.15-7,10.72a15.71,15.71,0,0,1-4.49,1.75A5.62,5.62,0,0,0,54,66.38c-3.36,3-7.12,10.53-12.51,14.07-1.27.83-2.09-2.81-3.35-4.35a1.15,1.15,0,0,0-.72-.5c-2.46-.13-3.89-1.71-5-4-2.28-4.71-2-9.23-4.3-2.4-.38,1.11-1.62,5.57-3.63,4C20.35,70,17.09,45.61,15.22,41.3c-.19-.44-.79-1.34-1.46-1.43s-1.78.32-1.86-.36A1.34,1.34,0,0,1,12.24,38.6Z"/><path class="cls-1" d="M16.92,39.37c2.22-.12,3.08-.55,4.31-2.8,4.1-7.45,6.31-21.35,7.25-24.73C31.19,2,34,9.93,38.21,15.46a7.19,7.19,0,0,0,2.54,2.31c.35.15.62.31,2.68-.08s4-1.5,6.22-1.53c4.41-.07,6.07,3.62,10,6.87,2,1.67,3.26,2,4.35,3.23,3.19,3.47,3.86,12.92,3.94,17.59.07,3.8-.06,4.73-1.12,6.65a8.09,8.09,0,0,1-1.55,1.75c-2.66,2.88-3.18,8.87-9.26,10.49-2.93.78-4.62,2.66-8.23,6.71-.59.68-.71.87-1.2,1s-1.21.28-1.76.47c-.91.31-.61.54-2.07,2.17-.34.36-.69.72-1.07,1-.78.7-1,1.07-2.42-.66C37,70.76,37.49,72,35.61,71.34c-4.78-1.72-4.52-11-6.09-8.69-1.7,2.5-2.93,14.77-7.16,0-1.52-5.31-3.74-15.76-6.17-21C15.55,40.18,14.91,39.47,16.92,39.37Z"/><path class="cls-1" d="M22.14,40.87c4.55-5.51,5.61-19.36,7.31-25.32,2.33-8.12,4.93.57,9.21,2.23,1.07.41,1.21.13,5,.4,6.13.46,8.27,3.59,11.9,8.36a25.23,25.23,0,0,0,3,2.77c1.58,1.24,5.63,0,7.37,8.38,1,4.66.46,7.4-2,11.86-1.21,2.21-1.87,2.84-4.09,6.36a18,18,0,0,1-2.72,3.78c-2.54,2.43-2.5.12-9.85,5.14-.45.31-1.46-.12-2.26-.47-3.9-1.7-2.29-1.55-3.88-.12-.25.23-.09.1-.63.93a14.29,14.29,0,0,1-2.78,3.3c-.71.56-.73.53-1.56.34-4.37-1-5.12-8.2-5.56-9.27-.14-.32-.3-.45-.55-.21a16,16,0,0,0-1.71,3.83c-.36,1.07-1.11,4.06-2.56,2.53-.88-.93-1.52-2.83-2.13-4.72-.93-2.88-3.86-13.55-4-16.15C19.49,42.64,20.58,42.75,22.14,40.87Z"/><path class="cls-1" d="M27.61,31.9c2.48-12.27,2.16-16.72,5-15.84,1.18.37,2.66,1.44,4.79,1.39,9.59-.18,14.06,11.47,17.22,13.9a3,3,0,0,0,1.6.75c2.54.32,7.58-1.3,8.5,4.73a1.8,1.8,0,0,1,0,1c-.84,6.39-7.81,17.7-11.23,20-1,.69-2.61.82-5.44,1.45a21.67,21.67,0,0,1-5.09.66c-1.58.09-.63.06-1.93.36-.17,0-.18,0-.43.08-.42.22-1.08.87-1.74,1.21a1.31,1.31,0,0,1-1,.15c-.19,0-.48,0-.7,0-2.71-.35-3.34-4.51-4.65-5.74a1.51,1.51,0,0,0-2,0,9.11,9.11,0,0,0-2.92,3.09c-1.53,1.64-3.12-5.19-3.52-7.48C22.76,43.76,25.09,44.36,27.61,31.9Z"/><path class="cls-1" d="M29,30.63c1.75-10.56,1.66-11.2,5.28-11.1,3.07.08,2.49,0,3.32.06,6.49.65,10.06,9.22,14.58,11.66,3.06,1.66,6.17.12,7.66,1.17,3.93,2.76-4.73,18.23-9.42,20.85a8,8,0,0,1-2.6.92c-.65.11-.51,0-1.76.71-1,.59-3.91,2.41-3.91,2.41a.33.33,0,0,1-.17,0,4.45,4.45,0,0,1-1.21,0c-.85-.07-1.32.28-2.4-.7-.29-.26-.67-.69-.72-.73-3.29-2.87-6.43-6.21-8.36-7.4A3.55,3.55,0,0,1,28,47C26.58,43.6,28.18,35.3,29,30.63Z"/><path class="cls-1" d="M30.21,30c.72-4.68,1.66-4.56,5.16-4.59,1.76,0,3.66-.44,8.25,2.63,2.64,1.76,3.94,3.25,7.11,4.48,1.71.66,3,.93,3.42,2.38.76,2.75-1.58,11.15-7.59,14.4a20,20,0,0,1-2.39,1.23A11.94,11.94,0,0,1,38,51.76l-.5,0c-2.33-.31-5-3.8-6.24-5.75C30.54,44.89,29,37.83,30.21,30Z"/><path class="cls-1" d="M34.12,32.17c.68,0,3,0,3.42,0a15,15,0,0,1,9.34,4.28c1.92,2.38.47,7-2.58,9.25a11.65,11.65,0,0,1-5.67,2c-2.28.26-7.32,1-7.55-9.74C31,32.78,32.12,32.27,34.12,32.17Z"/><path class="cls-1" d="M34.39,39.31a3.29,3.29,0,0,1,1.88-.51h1.25c4.85.24,5,5.75-.05,6.47C33.83,45.79,32.61,40.65,34.39,39.31Z"/></g></g></svg>