<svg xmlns="http://www.w3.org/2000/svg" viewBox="0 0 315.4 557.03"><defs><style>.cls-1{fill:#fff;}</style></defs><title>logo-sm-white</title><g id="Layer_2" data-name="Layer 2"><g id="Layer_1-2" data-name="Layer 1"><path class="cls-1" d="M23.6,218A23.32,23.32,0,0,1,.3,194.73v-113a23.3,23.3,0,1,1,46.6,0v113A23.26,23.26,0,0,1,23.6,218Z"/><path class="cls-1" d="M122.4,218a23.29,23.29,0,0,1-17.9-8.4l-47.1-56.5a23.39,23.39,0,0,1,0-29.9l47.1-56.5a23.36,23.36,0,0,1,35.9,29.9l-34.6,41.5,34.6,41.5a23.46,23.46,0,0,1-18,38.4Z"/><path class="cls-1" d="M277.8,218H178.9a23.32,23.32,0,0,1-23.3-23.3v-113a23.3,23.3,0,1,1,46.6,0v89.6h52.2V81.73a23.3,23.3,0,0,1,46.6,0v113A23.11,23.11,0,0,1,277.8,218Z"/><path class="cls-1" d="M122.2,387.53H23.3a23.3,23.3,0,1,1,0-46.6H98.8v-1.4L16.9,316A23.34,23.34,0,0,1,0,293.63v-42.4a23.32,23.32,0,0,1,23.3-23.3h98.9a23.3,23.3,0,1,1,0,46.6H46.7v1.4l81.9,23.4a23.34,23.34,0,0,1,16.9,22.4v42.4A23.34,23.34,0,0,1,122.2,387.53Z"/><path class="cls-1" d="M122.5,557a23.32,23.32,0,0,1-23.3-23.3v-62.2l-10.9,9.3a23.35,23.35,0,0,1-30.4,0l-11-9.4v62.3a23.3,23.3,0,0,1-46.6,0v-113A23.32,23.32,0,0,1,38.8,403l34.3,29.4L107.4,403a23.32,23.32,0,0,1,38.5,17.7v113A23.47,23.47,0,0,1,122.5,557Z"/><path class="cls-1" d="M291.6,387.53a23.32,23.32,0,0,1-23.3-23.3v-19.8l-58.2-69.9H202v66.3h35.1a23.3,23.3,0,0,1,0,46.6H178.7a23.32,23.32,0,0,1-23.3-23.3v-113a23.32,23.32,0,0,1,23.3-23.3h42.4a23.34,23.34,0,0,1,17.9,8.4l70.6,84.7a23.32,23.32,0,0,1,5.4,14.9V364A23.39,23.39,0,0,1,291.6,387.53Z"/><path class="cls-1" d="M292,557a23.32,23.32,0,0,1-23.3-23.3v-19.8L210.5,444h-8.1v66.3h35.1a23.3,23.3,0,1,1,0,46.6H179.1a23.32,23.32,0,0,1-23.3-23.3v-113a23.32,23.32,0,0,1,23.3-23.3h42.4a23.34,23.34,0,0,1,17.9,8.4l70.6,84.7a23.32,23.32,0,0,1,5.4,14.9v28.2A23.52,23.52,0,0,1,292,557Z"/><path class="cls-1" d="M300.6,2.83A11.25,11.25,0,0,0,294.9,0c-2.7-.3-5.4,1.4-7.2,2.6s-5.3,4.7-6.8,5.7-5.1,2-11,5.6-29.2,18.5-29.2,18.5l6,.1-26.9,13.9h2.7l-3.9,3a8.84,8.84,0,0,0,6.3-.9v.8s32.1-12.7,38.3-9.4L259.4,41c.3,0,6.4.4,6.4.4a8.51,8.51,0,0,0,3.9,6.2c3.7,2.4,3.7,3.7,3.7,3.7s-1.9.8-1.9,1.8a18.52,18.52,0,0,1,5.5-.8,21.83,21.83,0,0,1,4.9.8s-.2-1.1-2.8-1.8-5.1-3.5-6.3-5a7,7,0,0,1-1-6.9c.9-2.3,4-3.6,10.3-6.8,7.5-3.9,9.2-6.8,10.2-9s2.6-6.7,3.5-8.8a11.86,11.86,0,0,1,3.6-5c1.1-.9,6.2-2.8,6.2-2.8Z"/></g></g></svg>