<?xml version="1.0" encoding="utf-8"?>
<!-- Generator: Adobe Illustrator 22.1.0, SVG Export Plug-In . SVG Version: 6.00 Build 0)  -->
<svg version="1.1" id="Layer_1" xmlns="http://www.w3.org/2000/svg" xmlns:xlink="http://www.w3.org/1999/xlink" x="0px" y="0px"
	 viewBox="0 0 553.9 121" style="enable-background:new 0 0 553.9 121;" xml:space="preserve">
<style type="text/css">
	.st0{fill:#E6007A;}
	.st1{fill:#FFFFFF;}
</style>
<g>
	<path class="st0" d="M25.8,121c-7.1,0-12.9-5.8-12.9-12.9V45.8c0-7.1,5.8-12.9,12.9-12.9c7.1,0,12.9,5.8,12.9,12.9v62.3
		C38.6,115.2,32.9,121,25.8,121z"/>
	<path class="st0" d="M80.3,121c-3.8,0-7.5-1.7-9.9-4.6l-26-31.1c-4-4.8-4-11.7,0-16.5l26-31.2c4.6-5.5,12.7-6.2,18.1-1.6
		c5.5,4.6,6.2,12.7,1.7,18.1l0,0L71.1,77l19.1,22.9c4.6,5.5,3.8,13.6-1.7,18.1C86.2,119.9,83.3,121,80.3,121z"/>
	<path class="st0" d="M165.9,121h-54.5c-7.1,0-12.9-5.8-12.9-12.9V45.8c0-7.1,5.8-12.9,12.9-12.9c7.1,0,12.9,5.8,12.9,12.9v49.4
		h28.8V45.8c0-7.1,5.8-12.9,12.9-12.9c7.1,0,12.9,5.8,12.9,12.9v62.3C178.8,115.2,173,121,165.9,121z"/>
	<path class="st0" d="M251.6,121h-54.5c-7.1-0.2-12.7-6.1-12.5-13.2c0.2-6.8,5.7-12.3,12.5-12.5h41.6v-0.7l-45.2-12.9
		c-5.5-1.6-9.3-6.6-9.3-12.4V45.8c0-7.1,5.8-12.9,12.9-12.9h54.5c7.1,0,12.9,5.8,12.9,12.9c0,7.1-5.8,12.9-12.9,12.9H210v0.8
		l45.2,12.9c5.5,1.6,9.3,6.6,9.3,12.4v23.3C264.5,115.2,258.7,121,251.6,121C251.6,121,251.6,121,251.6,121z"/>
	<path class="st0" d="M430.7,121c-7.1,0-12.9-5.8-12.9-12.9V73.8l-6,5.2c-4.8,4.1-11.9,4.1-16.8,0l-6-5.2v34.3
		c0,7.1-5.8,12.9-12.9,12.9c-7.1,0-12.9-5.8-12.9-12.9c0,0,0,0,0,0V45.8c0-7.1,5.8-12.9,12.9-12.9c3.1,0,6,1.1,8.4,3.1l18.9,16.2
		l18.9-16.2c5.4-4.6,13.5-4,18.2,1.4c2,2.3,3.1,5.3,3.1,8.4v62.3C443.6,115.2,437.9,121,430.7,121C430.7,121,430.7,121,430.7,121z"
		/>
	<path class="st0" d="M345,121c-7.1,0-12.9-5.8-12.9-12.9V97.2L300,58.7h-4.4v36.6H315c7.1,0.2,12.7,6.1,12.5,13.2
		c-0.2,6.8-5.7,12.3-12.5,12.5h-32.3c-7.1,0-12.9-5.8-12.9-12.9V45.8c0-7.1,5.8-12.9,12.9-12.9h23.4c3.8,0,7.5,1.7,9.9,4.6
		l38.9,46.7c1.9,2.3,3,5.2,3,8.2v15.6C357.9,115.2,352.2,121,345,121C345,121,345,121,345,121z"/>
	<path class="st0" d="M524.2,121c-7.1,0-12.9-5.8-12.9-12.9V97.2l-32.1-38.5h-4.5v36.5h19.4c7.1,0.2,12.7,6.1,12.5,13.2
		c-0.2,6.8-5.7,12.3-12.5,12.5h-32.2c-7.1,0-12.9-5.8-12.9-12.9V45.8c0-7.1,5.8-12.9,12.9-12.9h23.4c3.8,0,7.4,1.7,9.9,4.6
		l38.9,46.7c1.9,2.3,3,5.2,3,8.2v15.6C537.1,115.2,531.3,121,524.2,121C524.2,121,524.2,121,524.2,121z"/>
	<path class="st0" d="M295,1.6c-0.9-0.8-2-1.4-3.1-1.6c-1.5-0.2-3,0.8-4,1.4s-2.9,2.6-3.7,3.1s-2.8,1.1-6.1,3.1S262,17.9,262,17.9
		h3.3l-14.9,7.7h1.5l-2.1,1.6c1.2,0.3,2.4,0.1,3.5-0.5v0.5c0,0,17.7-7,21.1-5.2l-2.1,0.6c0.2,0,3.5,0.2,3.5,0.2
		c0.2,1.4,1,2.7,2.2,3.4c2,1.3,2.1,2.1,2.1,2.1s-1,0.4-1,1c1-0.3,2-0.4,3-0.4c0.9,0,1.8,0.2,2.7,0.4c0,0-0.1-0.6-1.5-1
		c-1.4-0.6-2.6-1.5-3.5-2.8c-0.8-1.1-1.1-2.5-0.6-3.8c0.5-1.3,2.2-2,5.7-3.8c4.1-2.1,5.1-3.7,5.6-5s1.5-3.7,1.9-4.9
		c0.4-1.1,1.1-2,2-2.8c1.1-0.6,2.2-1.1,3.4-1.5C297.9,3.9,295.6,2.1,295,1.6z M292.1,3.1c-0.4,0-0.7-0.3-0.7-0.7
		c0-0.4,0.3-0.7,0.7-0.7c0.4,0,0.7,0.3,0.7,0.7c0,0,0,0,0,0C292.8,2.8,292.5,3.1,292.1,3.1C292.1,3.1,292.1,3.1,292.1,3.1L292.1,3.1
		z"/>
</g>
<g>
	<path class="st1" d="M27.8,121c-7.1,0-12.9-5.8-12.9-12.9V45.8c0-7.1,5.8-12.9,12.9-12.9c7.1,0,12.9,5.8,12.9,12.9v62.3
		C40.6,115.2,34.9,121,27.8,121z"/>
	<path class="st1" d="M82.3,121c-3.8,0-7.5-1.7-9.9-4.6l-26-31.1c-4-4.8-4-11.7,0-16.5l26-31.2c4.6-5.5,12.7-6.2,18.1-1.6
		c5.5,4.6,6.2,12.7,1.7,18.1l0,0L73.1,77l19.1,22.9c4.6,5.5,3.8,13.6-1.7,18.1C88.2,119.9,85.3,121,82.3,121z"/>
	<path class="st1" d="M167.9,121h-54.5c-7.1,0-12.9-5.8-12.9-12.9V45.8c0-7.1,5.8-12.9,12.9-12.9c7.1,0,12.9,5.8,12.9,12.9v49.4
		h28.8V45.8c0-7.1,5.8-12.9,12.9-12.9c7.1,0,12.9,5.8,12.9,12.9v62.3C180.8,115.2,175,121,167.9,121z"/>
	<path class="st1" d="M253.6,121h-54.5c-7.1-0.2-12.7-6.1-12.5-13.2c0.2-6.8,5.7-12.3,12.5-12.5h41.6v-0.7l-45.2-12.9
		c-5.5-1.6-9.3-6.6-9.3-12.4V45.8c0-7.1,5.8-12.9,12.9-12.9h54.5c7.1,0,12.9,5.8,12.9,12.9c0,7.1-5.8,12.9-12.9,12.9H212v0.8
		l45.2,12.9c5.5,1.6,9.3,6.6,9.3,12.4v23.3C266.5,115.2,260.7,121,253.6,121C253.6,121,253.6,121,253.6,121z"/>
	<path class="st1" d="M432.7,121c-7.1,0-12.9-5.8-12.9-12.9V73.8l-6,5.2c-4.8,4.1-11.9,4.1-16.8,0l-6-5.2v34.3
		c0,7.1-5.8,12.9-12.9,12.9c-7.1,0-12.9-5.8-12.9-12.9c0,0,0,0,0,0V45.8c0-7.1,5.8-12.9,12.9-12.9c3.1,0,6,1.1,8.4,3.1l18.9,16.2
		l18.9-16.2c5.4-4.6,13.5-4,18.2,1.4c2,2.3,3.1,5.3,3.1,8.4v62.3C445.6,115.2,439.9,121,432.7,121C432.7,121,432.7,121,432.7,121z"
		/>
	<path class="st1" d="M347,121c-7.1,0-12.9-5.8-12.9-12.9V97.2L302,58.7h-4.4v36.6H317c7.1,0.2,12.7,6.1,12.5,13.2
		c-0.2,6.8-5.7,12.3-12.5,12.5h-32.3c-7.1,0-12.9-5.8-12.9-12.9V45.8c0-7.1,5.8-12.9,12.9-12.9h23.4c3.8,0,7.5,1.7,9.9,4.6
		l38.9,46.7c1.9,2.3,3,5.2,3,8.2v15.6C359.9,115.2,354.2,121,347,121C347,121,347,121,347,121z"/>
	<path class="st1" d="M526.2,121c-7.1,0-12.9-5.8-12.9-12.9V97.2l-32.1-38.5h-4.5v36.5h19.4c7.1,0.2,12.7,6.1,12.5,13.2
		c-0.2,6.8-5.7,12.3-12.5,12.5h-32.2c-7.1,0-12.9-5.8-12.9-12.9V45.8c0-7.1,5.8-12.9,12.9-12.9h23.4c3.8,0,7.4,1.7,9.9,4.6
		l38.9,46.7c1.9,2.3,3,5.2,3,8.2v15.6C539.1,115.2,533.3,121,526.2,121C526.2,121,526.2,121,526.2,121z"/>
	<path class="st1" d="M297,1.6c-0.9-0.8-2-1.4-3.1-1.6c-1.5-0.2-3,0.8-4,1.4s-2.9,2.6-3.7,3.1s-2.8,1.1-6.1,3.1S264,17.9,264,17.9
		h3.3l-14.9,7.7h1.5l-2.1,1.6c1.2,0.3,2.4,0.1,3.5-0.5v0.5c0,0,17.7-7,21.1-5.2l-2.1,0.6c0.2,0,3.5,0.2,3.5,0.2
		c0.2,1.4,1,2.7,2.2,3.4c2,1.3,2.1,2.1,2.1,2.1s-1,0.4-1,1c1-0.3,2-0.4,3-0.4c0.9,0,1.8,0.2,2.7,0.4c0,0-0.1-0.6-1.5-1
		c-1.4-0.6-2.6-1.5-3.5-2.8c-0.8-1.1-1.1-2.5-0.6-3.8c0.5-1.3,2.2-2,5.7-3.8c4.1-2.1,5.1-3.7,5.6-5s1.5-3.7,1.9-4.9
		c0.4-1.1,1.1-2,2-2.8c1.1-0.6,2.2-1.1,3.4-1.5C299.9,3.9,297.6,2.1,297,1.6z M294.1,3.1c-0.4,0-0.7-0.3-0.7-0.7
		c0-0.4,0.3-0.7,0.7-0.7c0.4,0,0.7,0.3,0.7,0.7c0,0,0,0,0,0C294.8,2.8,294.5,3.1,294.1,3.1C294.1,3.1,294.1,3.1,294.1,3.1L294.1,3.1
		z"/>
</g>
</svg>
