<svg width="524" height="88" viewBox="0 0 524 88.04" fill="none" xmlns="http://www.w3.org/2000/svg">
    <path d="M12.87,88A12.87,12.87,0,0,1,0,75.17V12.87a12.87,12.87,0,0,1,25.74,0v62.3A12.87,12.87,0,0,1,12.87,88Z" fill="white"/>
    <path d="M67.39,88a12.87,12.87,0,0,1-9.9-4.63l-26-31.15a12.87,12.87,0,0,1,0-16.48l26-31.15A12.87,12.87,0,0,1,77.27,21.11L58.17,44l19.1,22.91A12.88,12.88,0,0,1,67.39,88Z" fill="white"/>
    <path d="M153,88H98.53A12.87,12.87,0,0,1,85.66,75.17V12.87a12.87,12.87,0,0,1,25.74,0V62.3h28.76V12.87a12.88,12.88,0,0,1,25.75,0v62.3A12.87,12.87,0,0,1,153,88Z" fill="white"/>
    <path d="M238.69,88H184.18a12.87,12.87,0,0,1,0-25.74h41.64v-.79l-45.17-12.9a12.87,12.87,0,0,1-9.34-12.38V12.87A12.87,12.87,0,0,1,184.18,0h54.51a12.87,12.87,0,1,1,0,25.74H197.05v.78l45.18,12.91a12.88,12.88,0,0,1,9.33,12.38V75.17A12.87,12.87,0,0,1,238.69,88Z" fill="white"/>
    <path d="M417.82,88A12.87,12.87,0,0,1,405,75.17V40.86L399,46a12.87,12.87,0,0,1-16.75,0l-6.05-5.18V75.17a12.87,12.87,0,0,1-25.74,0V12.87a12.87,12.87,0,0,1,21.24-9.78l18.91,16.19L409.45,3.1a12.87,12.87,0,0,1,21.24,9.77v62.3A12.87,12.87,0,0,1,417.82,88Z" fill="white"/>
    <path d="M332.13,88a12.87,12.87,0,0,1-12.87-12.87V64.25L287.17,25.74h-4.46V62.3h19.35a12.87,12.87,0,0,1,0,25.74H269.84A12.87,12.87,0,0,1,257,75.17V12.87A12.87,12.87,0,0,1,269.84,0H293.2a12.9,12.9,0,0,1,9.89,4.63L342,51.35a12.88,12.88,0,0,1,3,8.24V75.17A12.88,12.88,0,0,1,332.13,88Z" fill="white"/>
    <path d="M511.27,88A12.87,12.87,0,0,1,498.4,75.17V64.25L466.3,25.74h-4.46V62.3h19.35a12.87,12.87,0,0,1,0,25.74H449A12.87,12.87,0,0,1,436.1,75.17V12.87A12.87,12.87,0,0,1,449,0h23.36a12.9,12.9,0,0,1,9.89,4.63l38.93,46.72a12.88,12.88,0,0,1,3,8.24V75.17A12.87,12.87,0,0,1,511.27,88Z" fill="white"/>
</svg>
