<svg xmlns="http://www.w3.org/2000/svg" width="524.17" height="121.01" viewBox="0 0 524.17 121.01">
    <path class="cls-1" d="M12.87,121A12.88,12.88,0,0,1,0,108.12V45.83a12.87,12.87,0,0,1,25.74,0v62.29A12.88,12.88,0,0,1,12.87,121Z" fill="#fff" />
    <path class="cls-1" d="M67.39,121a12.8,12.8,0,0,1-9.9-4.64l-26-31.14a12.89,12.89,0,0,1,0-16.48l26-31.15A12.87,12.87,0,0,1,77.27,54.07h0L58.18,77l19.09,22.9A12.88,12.88,0,0,1,67.39,121Z" fill="#fff" />
    <path class="cls-1" d="M153,121H98.53a12.88,12.88,0,0,1-12.87-12.88V45.83a12.87,12.87,0,0,1,25.74,0V95.25h28.77V45.83a12.87,12.87,0,0,1,25.74,0v62.29A12.88,12.88,0,0,1,153,121Z" fill="#fff" />
    <path class="cls-1" d="M238.69,121H184.18a12.88,12.88,0,0,1,0-25.75h41.64v-.73l-45.17-12.9a12.86,12.86,0,0,1-9.34-12.38V45.83A12.87,12.87,0,0,1,184.18,33h54.51a12.87,12.87,0,0,1,0,25.74H197.11v.82l45.17,12.91a12.87,12.87,0,0,1,9.33,12.37v23.32A12.88,12.88,0,0,1,238.73,121Z" fill="#fff" />
    <path class="cls-1"
        d="M417.82,121A12.88,12.88,0,0,1,405,108.12V73.81L399,79a12.87,12.87,0,0,1-16.75,0l-6-5.18v34.34a12.87,12.87,0,1,1-25.74,0V45.83a12.87,12.87,0,0,1,21.24-9.78l18.92,16.19L409.5,36.06a12.88,12.88,0,0,1,21.25,9.77v62.29A12.88,12.88,0,0,1,417.87,121Z" fill="#fff" />
    <path class="cls-1" d="M332.11,121a12.88,12.88,0,0,1-12.87-12.88V97.21L287.14,58.7h-4.43V95.25h19.4a12.88,12.88,0,0,1,0,25.75H269.84A12.88,12.88,0,0,1,257,108.12V45.83A12.87,12.87,0,0,1,269.84,33H293.2a12.89,12.89,0,0,1,9.91,4.63L342,84.31a12.87,12.87,0,0,1,3,8.24v15.57A12.88,12.88,0,0,1,332.16,121Z" fill="#fff" />
    <path class="cls-1" d="M511.27,121a12.88,12.88,0,0,1-12.87-12.88V97.21L466.31,58.7h-4.47V95.25h19.35a12.88,12.88,0,0,1,0,25.75H449a12.87,12.87,0,0,1-12.86-12.88V45.83A12.87,12.87,0,0,1,449,33h23.36a12.88,12.88,0,0,1,9.89,4.63l38.94,46.72a13,13,0,0,1,3,8.24v15.57A12.88,12.88,0,0,1,511.29,121Z" fill="#fff" />
    <path class="cls-1" d="M282.11,1.57A6.06,6.06,0,0,0,279,0c-1.48-.19-3,.79-4,1.45S272,4,271.23,4.62s-2.83,1.12-6.09,3.08-16.08,10.18-16.08,10.18h3.33l-14.88,7.71H239l-2.14,1.63a4.75,4.75,0,0,0,3.48-.51v.46s17.7-7,21.13-5.16l-2.08.61c.18,0,3.55.22,3.55.22a4.74,4.74,0,0,0,2.17,3.44c2,1.34,2.06,2.06,2.06,2.06s-1,.44-1,1a9.67,9.67,0,0,1,5.71,0s-.11-.58-1.52-1a8.51,8.51,0,0,1-3.48-2.75,3.88,3.88,0,0,1-.57-3.8c.49-1.26,2.18-2,5.68-3.77,4.13-2.13,5.07-3.73,5.65-5s1.45-3.7,1.93-4.86a6.58,6.58,0,0,1,2-2.75A28.1,28.1,0,0,1,285,3.89S282.76,2.11,282.11,1.57Zm-2.89,1.55a.68.68,0,1,1,.68-.68h0a.69.69,0,0,1-.68.69h0Z" fill="#fff" />
</svg>
