<svg xmlns="http://www.w3.org/2000/svg" viewBox="0 0 558.24 88.04"><defs><style>.cls-1{fill:none;}.cls-2{fill:#fff;}</style></defs><title>kusama-glitch-white</title><g id="Layer_2" data-name="Layer 2"><g id="Layer_1-2" data-name="Layer 1"><rect class="cls-1" width="558.24" height="88.04"/><path class="cls-2" d="M30.1,0A12.86,12.86,0,0,0,17.24,12.9V75.17a12.87,12.87,0,0,0,25.73,0V12.9A12.87,12.87,0,0,0,30.1,0Z"/><path class="cls-2" d="M92.84,3A12.88,12.88,0,0,0,74.7,4.62l-26,31.14a12.88,12.88,0,0,0,0,16.47l26,31.14A12.86,12.86,0,0,0,94.47,66.92L75.38,44,94.47,21.14A12.89,12.89,0,0,0,92.84,3Z"/><path class="cls-2" d="M170.56.39A12.87,12.87,0,0,0,157.33,12.9V62.31H128.59V12.9a12.87,12.87,0,0,0-25.73,0V75.17A12.86,12.86,0,0,0,115.72,88h54.45a12.87,12.87,0,0,0,12.9-12.83V12.9A12.87,12.87,0,0,0,170.56.39Z"/><path class="cls-2" d="M255.82,25.76h0a12.86,12.86,0,1,0,0-25.72H201.33A12.86,12.86,0,0,0,188.47,12.9V36.21a12.85,12.85,0,0,0,9.34,12.37L243,61.48v.79H201.33a12.87,12.87,0,0,0,0,25.73h54.49a12.86,12.86,0,0,0,12.86-12.83V51.82a12.86,12.86,0,0,0-9.32-12.37L214.2,26.54v-.78Z"/><path class="cls-2" d="M426.5,3.13,407.67,19.31,388.77,3.12a12.87,12.87,0,0,0-21.23,9.78V75.17a12.87,12.87,0,0,0,25.73,0V40.84l6,5.18a12.89,12.89,0,0,0,16.75,0l6-5.14V75.17a12.84,12.84,0,0,0,25.68,0V12.9A12.86,12.86,0,0,0,426.5,3.13Z"/><path class="cls-2" d="M320.19,4.66A12.89,12.89,0,0,0,310.3,0H287A12.86,12.86,0,0,0,274.12,12.9V75.17A12.87,12.87,0,0,0,287,88h32.2a12.87,12.87,0,1,0,0-25.73H299.82V25.76h4.46l32.07,38.5V75.13a12.87,12.87,0,0,0,25.73,0V59.6a12.87,12.87,0,0,0-3-8.24Z"/><path class="cls-2" d="M538.18,51.36,499.27,4.66A12.89,12.89,0,0,0,489.38,0H466A12.86,12.86,0,0,0,453.14,12.9V75.2A12.87,12.87,0,0,0,466,88h32.18a12.87,12.87,0,0,0,0-25.73H478.87V25.76h4.46l32.08,38.5V75.17A12.87,12.87,0,0,0,528.28,88h0a12.87,12.87,0,0,0,12.9-12.83V59.6A12.93,12.93,0,0,0,538.18,51.36Z"/></g></g></svg>