<svg xmlns="http://www.w3.org/2000/svg" viewBox="0 0 1178.36 394.34"><defs><style>.cls-1{fill:#4e4e4e;}.cls-2{fill:#d450a7;}.cls-3{fill:#fcf7f7;}.cls-4{fill:#fff;}</style></defs><title>polkaio</title><g id="Layer_2" data-name="Layer 2"><g id="Layer_1-2" data-name="Layer 1"><path id="svg_2" data-name="svg 2" class="cls-1" d="M612.92,230c-4.66,11.63-28.09,21.45-44.24,14.84q-2.49,29.44-11.3,53.08T535.1,338.1a96.16,96.16,0,0,1-30.9,25.51,79.83,79.83,0,0,1-36.9,8.92A97.37,97.37,0,0,1,440,368.89a55.09,55.09,0,0,1-21.56-11.6,53.62,53.62,0,0,1-14.1-20.73q-5.07-12.76-5.08-31a178.31,178.31,0,0,1,2.59-28.3,204.44,204.44,0,0,1,8.3-32.66,195.61,195.61,0,0,1,14.71-32.86,126.93,126.93,0,0,1,22-28.72,105.51,105.51,0,0,1,30-20.42q17-7.77,38.77-7.77,54.52,0,54.53,67.79c0,.11-.08.35,0,.42,22.71,11.23,40.4-3.19,46.65-14.08m-83.35,37.09q-6.63-1.65-9-6.52A25.44,25.44,0,0,1,522,228.22q0-8.9,3.63-14.61a21.83,21.83,0,0,1,9.64-8.4,76,76,0,0,0-1.45-11.51A24.83,24.83,0,0,0,531,186a10.64,10.64,0,0,0-4.67-4.25,17.5,17.5,0,0,0-7.15-1.25q-7.68,0-14.72,5.92A69.24,69.24,0,0,0,491,202.09a143.17,143.17,0,0,0-11.62,22.29,220.1,220.1,0,0,0-9,25.82,234.32,234.32,0,0,0-5.8,26.22A150.46,150.46,0,0,0,462.53,300a104.2,104.2,0,0,0,1.14,17.21,26.77,26.77,0,0,0,3.73,10.46,13.28,13.28,0,0,0,6.74,5.29,30.84,30.84,0,0,0,10.16,1.46q7.67,0,15.44-6.85t14.41-18.66a148.19,148.19,0,0,0,11.72-28,207.31,207.31,0,0,0,7.56-34.83"/><path id="svg_3" data-name="svg 3" class="cls-1" d="M708.61,310.41A81.43,81.43,0,0,0,715,294.74l20.06,0a173.63,173.63,0,0,1-13.37,29.87A123.26,123.26,0,0,1,706.36,346a83.34,83.34,0,0,1-32.65,22.4,74.27,74.27,0,0,1-15,3.94,90.18,90.18,0,0,1-12.75,1,53.68,53.68,0,0,1-17.83-2.9,37,37,0,0,1-14.41-9.12,43.7,43.7,0,0,1-9.64-15.76,57.08,57.08,0,0,1-3.53-23C604.46,246.83,644,82.06,644,82.06c25.62-3.21,62.82-8.5,62.82-8.5s-45.74,210.66-45.09,243c.19,9.05,3.79,15.76,17.21,15.76,14.81,0,26.41-16,29.72-21.9"/><path id="svg_4" data-name="svg 4" class="cls-1" d="M882.2,302.86c.93-5.33,4.76-21.14,4.76-21.14a47.89,47.89,0,0,0,1.35-8.19q.32-4,.31-8a64.17,64.17,0,0,0-2.8-19.17,44.75,44.75,0,0,0-8.6-15.86,40.46,40.46,0,0,0-14.62-10.79A50.25,50.25,0,0,0,842,215.79a55.09,55.09,0,0,0-14.1,1.87L922,151.73l-51.17,6.84L788.9,223.05,822.81,60.14,760,68.85s-14.47,70.64-29.57,152.65c-12.76,69.2-34.2,149.38-34.2,149.38h61.16L779.57,266a119.42,119.42,0,0,1,16.48-11.51,30.19,30.19,0,0,1,14.82-4.25q8.71,0,12,5.59t3.32,14.94c0,2.35-.11,4.83-.32,7.46a49.8,49.8,0,0,1-1.34,8.09L821,302.87a111.51,111.51,0,0,0-2.5,22.18q0,23.25,13.48,35.77t40,12.55a76.77,76.77,0,0,0,16.89-2.29q9.86-2.26,20.43-10.26t21.25-23.64q10.67-15.65,19.59-42.4H932.37A132.93,132.93,0,0,1,925.63,310c-8.12,14.52-18.64,30.3-31.19,33.13-29,6.53-15-24.46-12.24-40.29"/><path id="svg_5" data-name="svg 5" class="cls-1" d="M1108.69,316.55c-1.23,12.1,5.8,18.25,17.41,18.25a21.79,21.79,0,0,0,11.51-3.22,37.3,37.3,0,0,0,9.64-8.6,58.44,58.44,0,0,0,7.68-12.75,112.26,112.26,0,0,0,5.6-15.45h17.83a191,191,0,0,1-13.07,29.86A125.68,125.68,0,0,1,1150.67,346a82,82,0,0,1-15.44,14.1,76.59,76.59,0,0,1-15.35,8.3,66.81,66.81,0,0,1-14.3,3.93,82.54,82.54,0,0,1-12.44,1q-18,0-28.71-9.85t-13-29.13a163.81,163.81,0,0,1-11.41,14.2A84.93,84.93,0,0,1,1026.17,361a71,71,0,0,1-17.11,8.91,60.76,60.76,0,0,1-20.83,3.42,64.29,64.29,0,0,1-21.15-3.52,46.25,46.25,0,0,1-18-11.61q-7.87-8.09-12.65-21.15t-4.76-31.93a181.61,181.61,0,0,1,2.9-31.11,198.25,198.25,0,0,1,8.91-33.17,188.67,188.67,0,0,1,15-31.82,127.93,127.93,0,0,1,21.15-27,96.53,96.53,0,0,1,27.48-18.66,80.92,80.92,0,0,1,33.79-6.95q18,0,26.22,6.22t8.19,15.34v3.11l4.57-22.6s39.88-3.16,61.85-6.84c-17.11,54.67-31.57,137.2-33,164.83M1071.37,199a17.19,17.19,0,0,0-.83-4.67,16.87,16.87,0,0,0-2.8-5.39,15.92,15.92,0,0,0-5.28-4.35,18.19,18.19,0,0,0-8.51-1.76,28.21,28.21,0,0,0-16.9,5.81,63,63,0,0,0-14.62,15.44,123.44,123.44,0,0,0-11.81,21.87,206.86,206.86,0,0,0-8.81,25.2,209.28,209.28,0,0,0-5.5,25.5,155,155,0,0,0-1.86,22.5q0,12.23,2.28,18.87t5.49,9.84a12.71,12.71,0,0,0,6.95,3.84,40.17,40.17,0,0,0,6.63.62,24.42,24.42,0,0,0,10-2.38,36.17,36.17,0,0,0,10.17-7.05,52,52,0,0,0,8.91-11.72,57.91,57.91,0,0,0,6.11-16.37Z"/><g id="svg_9" data-name="svg 9"><path class="cls-2" d="M394.4,197.14c0,108.93-88.25,197.2-197.2,197.2S0,306.07,0,197.14,88.3,0,197.2,0,394.4,88.25,394.4,197.14"/></g><g id="svg_1" data-name="svg 1"><path class="cls-3" d="M134.07,257.81c9.27-39.73,25.5-136.71,46.07-188.81,5.11-12.94,38.63-18.78,57.52-4.14-14,48-27.07,120.35-27.07,120.35a51.57,51.57,0,0,0,19-5.05,74,74,0,0,0,16.67-11.09,87,87,0,0,0,13.88-15.62,111,111,0,0,0,10.51-18.68,108.3,108.3,0,0,0,6.64-20.2,92.82,92.82,0,0,0,2.32-20.31,66,66,0,0,0-2.8-19.41,45,45,0,0,0-8.67-16,40.07,40.07,0,0,0-15.22-10.92q-9.37-4-22.27-4-24.1,0-43.08,6.13t-32.1,17.69c-8.74,7.7-17,17.11-22.56,28.24s-8.29,23.73-8.29,37.81a51.89,51.89,0,0,0,1,11.46,41.25,41.25,0,0,0,2.19,7,23.9,23.9,0,0,0,2.18,4.07,4.61,4.61,0,0,1,1,2.52A111,111,0,0,1,109.42,157a44.29,44.29,0,0,1-15.77-6,27.06,27.06,0,0,1-9.68-11q-3.34-6.84-3.34-17a48.43,48.43,0,0,1,6.79-24.19C92,90.83,98.28,83.42,106.08,76.22c23.28-21.5,50.16-36.53,90.93-45.57A152.77,152.77,0,0,1,230.26,27q24.28,0,41.83,6t29,16.15A62.63,62.63,0,0,1,318,72.33a71,71,0,0,1,5.39,27.35,87,87,0,0,1-7.8,35.37A99.73,99.73,0,0,1,293,166.89a115.58,115.58,0,0,1-35.86,23q-21.1,8.85-47.71,8.84h-2.12s-21.47,90.73-31.59,122c-9.66,29.85-34.59,43.51-70.19,43.51,0,0,22.21-79.42,28.53-106.48"/></g><g id="svg_6" data-name="svg 6"><circle class="cls-4" cx="237.94" cy="333.64" r="30.03"/></g></g></g></svg>